#!OML:ASF H:\Punching\Project 1\Capture day 1\Session 1\female.ASF
:FULLY-SPECIFIED
:DEGREES
871
root 0.231843 14.8844 1.9107 13.9269 -7.1979 -2.14851
lowerback -4.28868 2.48035 2.58425
upperback -6.57935 3.2656 -0.349445
thorax -4.23711 1.50623 -1.78338
lowerneck -10.7762 2.88636 11.5011
upperneck 37.877 1.35227 -0.44643
head 15.2388 2.17105 -2.00236
rclavicle -6.26482e-015 -2.68359e-015
rhumerus -4.11418 14.6373 -68.5693
rradius 133.038
rwrist -17.3965
rhand -26.7419 8.42809
rfingers 7.12502
rthumb -0.170828 -21.5516
lclavicle -6.26482e-015 -2.68359e-015
lhumerus -6.04366 -18.0813 60.0555
lradius 137.656
lwrist -2.22799
lhand -19.9054 3.63107
lfingers 7.12502
lthumb 6.43112 33.5134
rfemur -7.24698 -6.38213 13.3622
rtibia 63.5239
rfoot 3.51253 -15.0521
rtoes 8.67862
lfemur -46.9627 10.1256 -31.7352
ltibia 47.8397
lfoot -18.667 19.819
ltoes 24.9709
872
root 0.218911 14.8728 1.8464 14.3239 -8.75172 -2.44059
lowerback -4.32475 2.68935 2.76375
upperback -6.64462 3.53877 -0.389415
thorax -4.2605 1.63184 -1.92133
lowerneck -10.7401 3.17001 11.7972
upperneck 37.6725 1.801 -0.716662
head 15.175 2.35416 -2.09687
rclavicle 6.83322e-016 1.09332e-015
rhumerus -4.33008 15.4842 -69.5836
rradius 132.984
rwrist -17.2623
rhand -26.6083 8.56961
rfingers 7.12502
rthumb -0.0417483 -21.4101
lclavicle 6.83322e-016 1.09332e-015
lhumerus -6.42509 -17.4763 59.9255
lradius 137.905
lwrist -2.17934
lhand -19.9601 3.32949
lfingers 7.12502
lthumb 6.37836 33.2135
rfemur -6.08477 -6.26222 13.0016
rtibia 60.4644
rfoot 2.96357 -15.1431
rtoes 7.81961
lfemur -47.9542 10.9064 -31.4829
ltibia 48.3928
lfoot -18.912 20.3987
ltoes 25.1381
873
root 0.203267 14.8615 1.77999 14.729 -10.2941 -2.75227
lowerback -4.37568 2.88722 2.93393
upperback -6.70184 3.79622 -0.434583
thorax -4.26624 1.75013 -2.05817
lowerneck -10.6678 3.45811 12.1322
upperneck 37.4436 2.25908 -1.00883
head 15.0973 2.54313 -2.20543
rclavicle 2.36057e-016 9.74045e-015
rhumerus -4.59141 16.339 -70.6102
rradius 132.906
rwrist -17.0182
rhand -26.5468 8.68686
rfingers 7.12502
rthumb 0.0176664 -21.2929
lclavicle 2.36057e-016 9.74045e-015
lhumerus -6.78097 -16.8931 59.7815
lradius 138.186
lwrist -2.03748
lhand -19.9518 3.13429
lfingers 7.12502
lthumb 6.38636 33.018
rfemur -5.0071 -6.10396 12.6889
rtibia 57.4348
rfoot 2.32651 -15.1737
rtoes 6.80493
lfemur -48.9309 11.6762 -31.1933
ltibia 48.938
lfoot -19.1424 20.9959
ltoes 25.2738
874
root 0.184886 14.8499 1.71082 15.1365 -11.8092 -3.0647
lowerback -4.44219 3.07043 3.08694
upperback -6.74664 4.03285 -0.495451
thorax -4.24955 1.85891 -2.20004
lowerneck -10.5767 3.74893 12.5041
upperneck 37.1986 2.71707 -1.31042
head 15.0137 2.73571 -2.32368
rclavicle 3.14577e-014 -6.36111e-015
rhumerus -4.90298 17.1886 -71.654
rradius 132.811
rwrist -16.6734
rhand -26.54 8.77452
rfingers 7.12502
rthumb 0.0242433 -21.2052
lclavicle 3.14577e-014 -6.36111e-015
lhumerus -7.09645 -16.3472 59.6168
lradius 138.49
lwrist -1.8355
lhand -19.9114 3.0334
lfingers 7.12502
lthumb 6.42532 32.9159
rfemur -4.00692 -5.8957 12.4145
rtibia 54.4575
rfoot 1.6328 -15.189
rtoes 5.71505
lfemur -49.8847 12.4194 -30.8815
ltibia 49.4652
lfoot -19.3595 21.6017
ltoes 25.4238
875
root 0.163922 14.8381 1.63862 15.5345 -13.2983 -3.37134
lowerback -4.50258 3.2391 3.22268
upperback -6.78629 4.24964 -0.57606
thorax -4.23014 1.95814 -2.35257
lowerneck -10.4535 4.03991 12.9085
upperneck 36.9433 3.17205 -1.61468
head 14.9241 2.93118 -2.44863
rclavicle 4.1487e-014 9.54166e-015
rhumerus -5.26842 18.0224 -72.7158
rradius 132.702
rwrist -16.2732
rhand -26.5447 8.81931
rfingers 7.12502
rthumb 0.019666 -21.1604
lclavicle 4.1487e-014 9.54166e-015
lhumerus -7.37393 -15.8601 59.4277
lradius 138.794
lwrist -1.63352
lhand -19.8862 3.05172
lfingers 7.12502
lthumb 6.44967 32.9335
rfemur -3.08438 -5.61009 12.1818
rtibia 51.5512
rfoot 0.947972 -15.235
rtoes 4.40694
lfemur -50.7989 13.1338 -30.5474
ltibia 49.9651
lfoot -19.5639 22.2132
ltoes 25.6052
876
root 0.14049 14.8266 1.56273 15.9253 -14.7439 -3.66464
lowerback -4.567 3.38418 3.33603
upperback -6.80792 4.43414 -0.673065
thorax -4.19027 2.04251 -2.50864
lowerneck -10.3375 4.33919 13.3365
upperneck 36.6826 3.63175 -1.91984
head 14.8406 3.13189 -2.57629
rclavicle 1.86236e-014 9.93923e-016
rhumerus -5.64057 18.8298 -73.7798
rradius 132.586
rwrist -15.8704
rhand -26.5169 8.83015
rfingers 7.12502
rthumb 0.0465031 -21.1496
lclavicle 1.86236e-014 9.93923e-016
lhumerus -7.61155 -15.4097 59.2126
lradius 139.095
lwrist -1.4624
lhand -19.9157 3.073
lfingers 7.12502
lthumb 6.42117 32.9557
rfemur -2.24013 -5.2239 11.9986
rtibia 48.7332
rfoot 0.264937 -15.3828
rtoes 3.0171
lfemur -51.677 13.8199 -30.2028
ltibia 50.4303
lfoot -19.7456 22.8076
ltoes 25.8145
877
root 0.114954 14.816 1.48377 16.2988 -16.1533 -3.94793
lowerback -4.62172 3.50677 3.42642
upperback -6.81228 4.58878 -0.777811
thorax -4.13938 2.11334 -2.66
lowerneck -10.2315 4.64563 13.7733
upperneck 36.4217 4.09874 -2.22821
head 14.7661 3.33672 -2.70462
rclavicle -5.71351e-014 -1.07344e-014
rhumerus -6.01538 19.6078 -74.8313
rradius 132.475
rwrist -15.504
rhand -26.4178 8.82691
rfingers 7.12502
rthumb 0.142205 -21.1528
lclavicle -5.71351e-014 -1.07344e-014
lhumerus -7.8116 -14.9898 58.9823
lradius 139.364
lwrist -1.36337
lhand -20.021 3.13575
lfingers 7.12502
lthumb 6.31951 33.0215
rfemur -1.46529 -4.70484 11.8711
rtibia 46.0176
rfoot -0.378562 -15.654
rtoes 1.49342
lfemur -52.5017 14.4839 -29.8408
ltibia 50.8569
lfoot -19.9066 23.3873
ltoes 26.0551
